<svg width="175" height="175" viewBox="0 0 175 175" fill="none" xmlns="http://www.w3.org/2000/svg">
<path fill-rule="evenodd" clip-rule="evenodd" d="M53.3843 93.1391V26.3907L87.2271 7L150 43.6689V115.912L116.703 134.52L91.5939 119.743L91.4465 150.025L58.5808 169L25 149V109.241L53.3843 93.1391Z" fill="#262426"/>
<path fill-rule="evenodd" clip-rule="evenodd" d="M58.4989 30.2182L87.2107 46.9929L115.022 30.7108L115.109 65.5402L120.813 62.3063L120.497 31.7343L145.087 47.4964L144.995 112.597L116.987 128.294L116.96 94.2301L87.1998 111.585V146.059L58.3679 162.5L29.5906 145.747L29.6998 115.679L58.9465 132.492L58.9847 126.575L31.3319 110.507L58.5371 95.4561L58.4989 30.2018V30.2182Z" fill="#FDD34A"/>
<path fill-rule="evenodd" clip-rule="evenodd" d="M111.474 103.395C111.474 103.395 111.496 103.395 111.501 103.395C111.512 103.395 111.517 103.412 111.517 103.417L111.709 124.953V103.467L93.0732 114.221L111.517 103.395L111.545 124.959L93.0349 114.226" fill="#BE83D4"/>
<path fill-rule="evenodd" clip-rule="evenodd" d="M87.2107 40.8339L62.8712 26.6097L87.1943 12.4675L111.517 26.5987L87.2052 40.8284L87.2107 40.8339Z" fill="#BE83D4"/>
<path fill-rule="evenodd" clip-rule="evenodd" d="M120.497 31.6995L145.087 47.4617L120.813 62.2934L120.497 31.6995Z" fill="#BE83D4"/>
<path fill-rule="evenodd" clip-rule="evenodd" d="M58.5699 95.3393L87.1998 111.561L58.9847 126.546L31.3319 110.478L58.5699 95.3393Z" fill="#BE83D4"/>
<path fill-rule="evenodd" clip-rule="evenodd" d="M58.5317 30.1562L87.1834 46.9308L87.1998 111.561L58.5699 95.3393L58.5317 30.1562Z" fill="#BE83D4"/>
<path fill-rule="evenodd" clip-rule="evenodd" d="M29.5906 115.649L58.9793 132.55L58.3133 162.487L29.4814 145.702L29.5906 115.649Z" fill="#BE83D4"/>
</svg>
