<svg width="3000" height="2000" viewBox="0 0 3000 2000" fill="none" xmlns="http://www.w3.org/2000/svg">
<g clip-path="url(#clip0_204_2)">
<path fill-rule="evenodd" clip-rule="evenodd" d="M0.0012207 -0.00579834H3000V1999.99H0.0012207V-0.00579834Z" fill="#061123"/>
<path fill-rule="evenodd" clip-rule="evenodd" d="M768.256 3152.41L3768.26 1152.41L3942.44 1413.67L942.431 3413.67L768.256 3152.41Z" fill="#FFC000"/>
<path fill-rule="evenodd" clip-rule="evenodd" d="M483.141 2724.73L3483.15 724.732L3657.32 985.995L657.316 2985.99L483.141 2724.73Z" fill="#FFC000"/>
<path fill-rule="evenodd" clip-rule="evenodd" d="M198.026 2297.06L3198.03 297.058L3372.21 558.321L372.201 2558.32L198.026 2297.06Z" fill="#FFC000"/>
<path fill-rule="evenodd" clip-rule="evenodd" d="M-87.0916 1869.38L2912.92 -130.62L3087.09 130.643L87.0835 2130.64L-87.0916 1869.38Z" fill="#FFC000"/>
<path fill-rule="evenodd" clip-rule="evenodd" d="M2745.2 169.813L2999.97 -0.0336074L3000.02 0.0495982L2745.25 169.896L2745.2 169.813Z" fill="#FFC000"/>
<path fill-rule="evenodd" clip-rule="evenodd" d="M346.25 666.249C346.25 638.654 323.843 616.25 296.248 616.25H146.249C118.653 616.25 96.2488 638.654 96.2488 666.249V816.249C96.2488 843.845 118.653 866.249 146.249 866.249H296.248C323.843 866.249 346.25 843.845 346.25 816.249V666.249Z" fill="#FFC000"/>
<path fill-rule="evenodd" clip-rule="evenodd" d="M606.25 146.249C606.25 118.654 583.843 96.2495 556.248 96.2495H406.249C378.653 96.2495 356.249 118.654 356.249 146.249V296.249C356.249 323.845 378.653 346.249 406.249 346.249H556.248C583.843 346.249 606.25 323.845 606.25 296.249V146.249Z" fill="#FFC000"/>
<path fill-rule="evenodd" clip-rule="evenodd" d="M606.25 406.249C606.25 378.654 583.843 356.249 556.248 356.249H406.249C378.653 356.249 356.249 378.654 356.249 406.249V556.249C356.249 583.845 378.653 606.249 406.249 606.249H556.248C583.843 606.249 606.25 583.845 606.25 556.249V406.249Z" fill="#FFC000"/>
<path fill-rule="evenodd" clip-rule="evenodd" d="M866.25 406.249C866.25 378.654 843.843 356.249 816.248 356.249H666.249C638.653 356.249 616.249 378.654 616.249 406.249V556.249C616.249 583.845 638.653 606.249 666.249 606.249H816.248C843.843 606.249 866.25 583.845 866.25 556.249V406.249Z" fill="#FFC000"/>
<path fill-rule="evenodd" clip-rule="evenodd" d="M866.25 666.249C866.25 638.654 843.843 616.25 816.248 616.25H666.249C638.653 616.25 616.249 638.654 616.249 666.249V816.249C616.249 843.845 638.653 866.249 666.249 866.249H816.248C843.843 866.249 866.25 843.845 866.25 816.249V666.249Z" fill="#FFC000"/>
</g>
<defs>
<clipPath id="clip0_204_2">
<rect width="3000" height="2000" fill="white"/>
</clipPath>
</defs>
</svg>
